<svg width="271" height="83" viewBox="0 0 271 83" fill="none" xmlns="http://www.w3.org/2000/svg">
<mask id="mask0_1775_1934" style="mask-type:alpha" maskUnits="userSpaceOnUse" x="0" y="0" width="271" height="83">
<rect x="1" y="1" width="269" height="81" rx="40.5" fill="url(#paint0_linear_1775_1934)" stroke="url(#paint1_linear_1775_1934)" stroke-width="2"/>
</mask>
<g mask="url(#mask0_1775_1934)">
<rect x="1" y="1" width="269" height="81" rx="40.5" fill="url(#paint2_linear_1775_1934)" stroke="url(#paint3_linear_1775_1934)" stroke-width="2"/>
<path d="M105.945 17.4805H100.477V22.3242H105.535V23.7988H100.477V30H98.8359V15.9961H105.945V17.4805ZM109.207 17.6074C108.882 17.6074 108.608 17.5 108.387 17.2852C108.165 17.0638 108.055 16.7936 108.055 16.4746C108.055 16.1556 108.165 15.8887 108.387 15.6738C108.608 15.4525 108.882 15.3418 109.207 15.3418C109.533 15.3418 109.806 15.4525 110.027 15.6738C110.249 15.8887 110.359 16.1556 110.359 16.4746C110.359 16.7936 110.249 17.0638 110.027 17.2852C109.806 17.5 109.533 17.6074 109.207 17.6074ZM109.988 30H108.387V20H109.988V30ZM121.531 30H119.93V24.2969C119.93 23.2357 119.734 22.4414 119.344 21.9141C118.96 21.3802 118.38 21.1133 117.605 21.1133C116.805 21.1133 116.141 21.416 115.613 22.0215C115.092 22.6204 114.832 23.3789 114.832 24.2969V30H113.23V20H114.832V21.6602H114.871C115.249 21.0286 115.711 20.5566 116.258 20.2441C116.805 19.9251 117.436 19.7656 118.152 19.7656C119.246 19.7656 120.083 20.1204 120.662 20.8301C121.242 21.5332 121.531 22.5521 121.531 23.8867V30ZM131.453 28.3008C131.082 28.9453 130.61 29.4303 130.037 29.7559C129.471 30.0749 128.797 30.2344 128.016 30.2344C126.759 30.2344 125.753 29.7884 124.998 28.8965C124.249 27.998 123.875 26.7773 123.875 25.2344C123.875 23.5807 124.292 22.2559 125.125 21.2598C125.958 20.2637 127.068 19.7656 128.455 19.7656C129.145 19.7656 129.738 19.9023 130.232 20.1758C130.734 20.4427 131.141 20.8464 131.453 21.3867H131.492V15.1953H133.094V30H131.492V28.3008H131.453ZM125.516 25.1562C125.516 26.3086 125.783 27.2201 126.316 27.8906C126.857 28.5547 127.579 28.8867 128.484 28.8867C129.383 28.8867 130.109 28.5645 130.662 27.9199C131.215 27.2754 131.492 26.4616 131.492 25.4785V24.0039C131.492 23.1966 131.222 22.513 130.682 21.9531C130.148 21.3932 129.474 21.1133 128.66 21.1133C127.684 21.1133 126.915 21.4714 126.355 22.1875C125.796 22.9036 125.516 23.8932 125.516 25.1562ZM142.645 17.6074C142.319 17.6074 142.046 17.5 141.824 17.2852C141.603 17.0638 141.492 16.7936 141.492 16.4746C141.492 16.1556 141.603 15.8887 141.824 15.6738C142.046 15.4525 142.319 15.3418 142.645 15.3418C142.97 15.3418 143.243 15.4525 143.465 15.6738C143.686 15.8887 143.797 16.1556 143.797 16.4746C143.797 16.7936 143.686 17.0638 143.465 17.2852C143.243 17.5 142.97 17.6074 142.645 17.6074ZM143.426 30H141.824V20H143.426V30ZM151.434 29.8828C151.16 29.9935 150.89 30.0749 150.623 30.127C150.363 30.1855 150.066 30.2148 149.734 30.2148C148.94 30.2148 148.315 29.9837 147.859 29.5215C147.41 29.0527 147.186 28.3626 147.186 27.4512V21.3672H145.467V20H147.186V17.5586L148.787 17.041V20H151.307V21.3672H148.787V27.2656C148.787 27.8385 148.888 28.252 149.09 28.5059C149.298 28.7598 149.607 28.8867 150.018 28.8867C150.213 28.8867 150.402 28.8639 150.584 28.8184C150.766 28.7728 150.919 28.7207 151.043 28.6621L151.434 29.8828ZM163.113 30.2344C161.635 30.2344 160.454 29.7689 159.568 28.8379C158.689 27.9004 158.25 26.6602 158.25 25.1172C158.25 23.444 158.706 22.1354 159.617 21.1914C160.529 20.2474 161.772 19.7721 163.348 19.7656C164.839 19.7591 166.001 20.2181 166.834 21.1426C167.674 22.0671 168.094 23.3398 168.094 24.9609C168.094 26.5625 167.641 27.8418 166.736 28.7988C165.838 29.7559 164.63 30.2344 163.113 30.2344ZM163.23 28.8867C164.266 28.8867 165.06 28.5514 165.613 27.8809C166.173 27.2038 166.453 26.25 166.453 25.0195C166.453 23.763 166.173 22.7995 165.613 22.1289C165.053 21.4518 164.259 21.1133 163.23 21.1133C162.202 21.1133 161.388 21.4648 160.789 22.168C160.19 22.8711 159.891 23.8346 159.891 25.0586C159.891 26.2435 160.193 27.1777 160.799 27.8613C161.404 28.5449 162.215 28.8867 163.23 28.8867ZM178.953 30H177.352V24.2969C177.352 23.2357 177.156 22.4414 176.766 21.9141C176.382 21.3802 175.802 21.1133 175.027 21.1133C174.227 21.1133 173.562 21.416 173.035 22.0215C172.514 22.6204 172.254 23.3789 172.254 24.2969V30H170.652V20H172.254V21.6602H172.293C172.671 21.0286 173.133 20.5566 173.68 20.2441C174.227 19.9251 174.858 19.7656 175.574 19.7656C176.668 19.7656 177.505 20.1204 178.084 20.8301C178.663 21.5332 178.953 22.5521 178.953 23.8867V30Z" fill="white"/>
<path d="M97.62 63V40.32H103.2V49.212H112.056V40.32H117.636V63H112.056V54.072H103.2V63H97.62ZM119.417 55.08C119.417 53.736 119.597 52.536 119.957 51.48C120.341 50.424 120.833 49.536 121.433 48.816C122.057 48.096 122.789 47.556 123.629 47.196C124.469 46.812 125.345 46.62 126.257 46.62C127.313 46.62 128.297 46.836 129.209 47.268C130.121 47.7 130.865 48.36 131.441 49.248V47.16H136.985V63H131.441V60.912C130.865 61.8 130.121 62.46 129.209 62.892C128.297 63.324 127.313 63.54 126.257 63.54C125.345 63.54 124.469 63.36 123.629 63C122.789 62.616 122.057 62.064 121.433 61.344C120.833 60.624 120.341 59.736 119.957 58.68C119.597 57.624 119.417 56.424 119.417 55.08ZM128.237 51.12C127.205 51.12 126.401 51.504 125.825 52.272C125.249 53.016 124.961 53.952 124.961 55.08C124.961 56.208 125.249 57.156 125.825 57.924C126.401 58.668 127.205 59.04 128.237 59.04C129.197 59.04 129.977 58.692 130.577 57.996C131.201 57.3 131.513 56.328 131.513 55.08C131.513 53.832 131.213 52.86 130.613 52.164C130.013 51.468 129.221 51.12 128.237 51.12ZM144.209 55.08C144.209 56.448 144.509 57.48 145.109 58.176C145.709 58.872 146.417 59.22 147.233 59.22C147.881 59.22 148.457 59.004 148.961 58.572C149.465 58.14 149.765 57.492 149.861 56.628H155.549C155.381 57.924 155.009 59.016 154.433 59.904C153.857 60.792 153.173 61.512 152.381 62.064C151.613 62.592 150.773 62.964 149.861 63.18C148.949 63.42 148.073 63.54 147.233 63.54C146.177 63.54 145.133 63.372 144.101 63.036C143.069 62.7 142.145 62.196 141.329 61.524C140.537 60.828 139.889 59.94 139.385 58.86C138.905 57.78 138.665 56.52 138.665 55.08C138.665 53.64 138.905 52.38 139.385 51.3C139.889 50.22 140.537 49.344 141.329 48.672C142.145 47.976 143.069 47.46 144.101 47.124C145.133 46.788 146.177 46.62 147.233 46.62C148.073 46.62 148.949 46.74 149.861 46.98C150.773 47.196 151.613 47.58 152.381 48.132C153.149 48.66 153.821 49.368 154.397 50.256C154.973 51.144 155.357 52.236 155.549 53.532H149.861C149.789 52.644 149.489 51.996 148.961 51.588C148.457 51.156 147.881 50.94 147.233 50.94C146.417 50.94 145.709 51.288 145.109 51.984C144.509 52.68 144.209 53.712 144.209 55.08ZM157.089 63V38.52H162.633V53.388L167.997 47.16H174.045L167.853 54.648L174.549 63H167.781L162.633 56.16V63H157.089ZM197.782 54.072H203.434C203.074 55.968 202.522 57.54 201.778 58.788C201.058 60.012 200.206 60.984 199.222 61.704C198.262 62.4 197.194 62.88 196.018 63.144C194.842 63.408 193.654 63.54 192.454 63.54C190.822 63.54 189.31 63.24 187.918 62.64C186.526 62.04 185.338 61.224 184.354 60.192C183.37 59.136 182.59 57.876 182.014 56.412C181.462 54.948 181.186 53.364 181.186 51.66C181.186 49.956 181.45 48.372 181.978 46.908C182.53 45.444 183.286 44.196 184.246 43.164C185.23 42.108 186.418 41.28 187.81 40.68C189.202 40.08 190.75 39.78 192.454 39.78C193.654 39.78 194.842 39.924 196.018 40.212C197.194 40.5 198.262 41.004 199.222 41.724C200.206 42.444 201.058 43.416 201.778 44.64C202.522 45.864 203.074 47.4 203.434 49.248H197.71C197.374 47.52 196.69 46.356 195.658 45.756C194.65 45.132 193.582 44.82 192.454 44.82C190.75 44.82 189.37 45.468 188.314 46.764C187.282 48.06 186.766 49.692 186.766 51.66C186.766 53.628 187.294 55.26 188.35 56.556C189.406 57.852 190.774 58.5 192.454 58.5C193.534 58.5 194.59 58.224 195.622 57.672C196.678 57.12 197.398 55.92 197.782 54.072ZM205.097 63V38.52H210.641V63H205.097ZM218.458 47.16V55.656C218.458 56.736 218.662 57.54 219.07 58.068C219.502 58.596 220.054 58.86 220.726 58.86C221.374 58.86 221.914 58.572 222.346 57.996C222.802 57.396 223.03 56.46 223.03 55.188V47.16H228.574V63H223.03V60.948C222.502 61.812 221.842 62.46 221.05 62.892C220.258 63.324 219.43 63.54 218.566 63.54C216.886 63.54 215.518 63 214.462 61.92C213.43 60.816 212.914 59.256 212.914 57.24V47.16H218.458ZM248.647 55.08C248.647 56.424 248.455 57.624 248.071 58.68C247.711 59.736 247.219 60.624 246.595 61.344C245.995 62.064 245.275 62.616 244.435 63C243.595 63.36 242.719 63.54 241.807 63.54C240.751 63.54 239.767 63.324 238.855 62.892C237.943 62.46 237.199 61.8 236.623 60.912V63H231.079V38.52H236.623V49.248C237.199 48.36 237.943 47.7 238.855 47.268C239.767 46.836 240.751 46.62 241.807 46.62C242.719 46.62 243.595 46.812 244.435 47.196C245.275 47.556 245.995 48.096 246.595 48.816C247.219 49.536 247.711 50.424 248.071 51.48C248.455 52.536 248.647 53.736 248.647 55.08ZM239.827 51.12C238.843 51.12 238.051 51.48 237.451 52.2C236.851 52.896 236.551 53.856 236.551 55.08C236.551 56.304 236.851 57.276 237.451 57.996C238.075 58.692 238.867 59.04 239.827 59.04C240.859 59.04 241.663 58.668 242.239 57.924C242.815 57.156 243.103 56.208 243.103 55.08C243.103 53.952 242.815 53.016 242.239 52.272C241.663 51.504 240.859 51.12 239.827 51.12Z" fill="white"/>
<mask id="mask1_1775_1934" style="mask-type:luminance" maskUnits="userSpaceOnUse" x="-3" y="20" width="96" height="45">
<path d="M-3 20H92.0679V64.9772H-3V20Z" fill="white"/>
</mask>
<g mask="url(#mask1_1775_1934)">
<path fill-rule="evenodd" clip-rule="evenodd" d="M-15.223 42.7713C-15.223 42.7713 -14.6467 43.3787 -13.6757 44.3545C-10.2166 47.8307 -5.5905 53.8833 -0.331524 55.8932C6.40366 58.467 13.3964 58.2774 13.3964 58.2774C13.3964 58.2774 18.1102 37.755 18.3507 38.0778C18.5912 38.4005 10.0926 35.2604 5.61324 34.3029C1.13381 33.3453 -3.94001 29.7189 -5.30847 28.5679" fill="white"/>
<path d="M-15.223 42.8134C-15.223 42.8134 -7.0277 53.3288 -0.281475 55.8932C6.46478 58.4579 13.4807 58.2083 13.4807 58.2083L19.3385 38.2321C19.3385 38.2321 5.20391 35.9327 -5.25842 28.5679" stroke="#17171D" stroke-width="2" stroke-linecap="square" stroke-linejoin="round"/>
<path fill-rule="evenodd" clip-rule="evenodd" d="M18.7284 38.0181C17.1721 37.924 13.8547 37.5941 10.9498 46.9836C8.04483 56.3731 11.9582 58.2915 13.3266 58.0693C14.6951 57.8472 17.336 56.9588 21.6093 48.4375C25.8827 39.9162 20.2847 38.1122 18.7284 38.0181Z" fill="white" stroke="#17171D" stroke-width="2" stroke-linecap="round" stroke-linejoin="round"/>
<mask id="mask2_1775_1934" style="mask-type:luminance" maskUnits="userSpaceOnUse" x="23" y="26" width="69" height="20">
<path fill-rule="evenodd" clip-rule="evenodd" d="M29.1853 27.7976C29.6726 27.522 36.7819 23.86 53.4684 30.6641C69.2299 37.0914 85.1942 29.695 88.0639 28.2151C88.159 28.1658 88.3175 28.2937 88.2659 28.3768L85.3653 33.0757C85.3195 33.1498 85.3813 33.2383 85.4804 33.2397C86.2284 33.2512 88.837 33.286 91.758 33.2641C91.8788 33.2629 91.9471 33.3793 91.8585 33.4489C89.8889 34.9988 75.9882 45.6215 65.1179 45.5822C53.392 45.5395 47.0537 43.2128 39.5643 41.4435C32.1895 39.7014 28.0042 39.0896 23.4833 39.7041C23.4833 39.7041 27.9688 30.5189 28.9636 28.2887C29.1025 27.9771 29.183 27.7989 29.1853 27.7976Z" fill="white"/>
</mask>
<g mask="url(#mask2_1775_1934)">
<path fill-rule="evenodd" clip-rule="evenodd" d="M29.1853 27.7976C29.6726 27.522 36.7819 23.86 53.4684 30.6641C69.2299 37.0914 85.1942 29.695 88.0639 28.2151C88.159 28.1658 88.3175 28.2937 88.2659 28.3768L85.3653 33.0757C85.3195 33.1498 85.3813 33.2383 85.4804 33.2397C86.2284 33.2512 88.837 33.286 91.758 33.2641C91.8788 33.2629 91.9471 33.3793 91.8585 33.4489C89.8889 34.9988 75.9882 45.6215 65.1179 45.5822C53.392 45.5395 47.0537 43.2128 39.5643 41.4435C32.1895 39.7014 28.0042 39.0896 23.4833 39.7041C23.4833 39.7041 27.9688 30.5189 28.9636 28.2887C29.1025 27.9771 29.183 27.7989 29.1853 27.7976Z" fill="#EC3750" stroke="#17171D" stroke-width="3"/>
</g>
<path fill-rule="evenodd" clip-rule="evenodd" d="M33.3591 30.2214C33.1768 31.067 32.8277 32.5194 32.1001 34.3952C30.5938 37.3857 33.1394 36.9062 33.8738 35.6642C34.3091 34.9784 34.7569 34.2342 34.7569 34.2342L37.0382 34.9794C37.0382 34.9794 36.8498 35.8541 36.6579 36.5775C35.9307 38.4533 38.0246 38.2355 38.6106 36.8499C38.872 36.1372 40.0875 33.162 40.4267 31.5875C40.9309 30.581 39.2275 29.6541 38.4459 31.2807C38.0296 31.879 37.3523 33.1901 37.3523 33.1901C37.3523 33.1901 35.4686 32.597 35.4465 32.5334C35.3735 32.3715 35.6071 31.9556 35.619 31.5659C35.5182 28.8688 33.6042 29.0843 33.3591 30.2214Z" fill="white"/>
<path fill-rule="evenodd" clip-rule="evenodd" d="M43.6146 32.2308C44.2013 31.2589 44.8698 31.0981 45.3662 31.1443C45.5808 31.1598 45.8701 31.5274 46.0911 31.8803C46.8085 34.2015 45.4793 38.461 45.2467 38.7466C44.4457 39.8246 43.0506 39.6151 43.5871 38.4493C43.8383 37.7407 44.1069 37.0969 44.1069 37.0969L42.3006 36.9206C40.8688 39.2356 39.5973 38.2595 40.3381 37.2599C41.1309 36.0886 42.8211 33.524 43.6146 32.2308ZM43.0021 35.2107L44.7822 35.4728C44.7822 35.4728 45.2905 32.8364 44.7326 33.1127L43.0021 35.2107Z" fill="white"/>
<path fill-rule="evenodd" clip-rule="evenodd" d="M52.702 34.4915C52.9403 33.9336 52.4568 32.6682 50.7432 32.8727C48.2626 32.8788 47.3856 36.531 47.3856 36.531C47.3856 36.531 46.9639 38.2999 47.6084 39.5088C48.1937 40.6744 49.6282 40.6833 49.9066 40.7138C51.5367 40.308 50.9839 39.3936 50.7055 39.3633C50.3514 39.3466 49.8703 39.3939 49.4836 39.126C48.8273 38.6774 48.9505 37.545 49.0968 36.9362C49.4384 35.9127 50.1901 33.8805 51.3693 34.3827C52.0745 35.1475 52.574 34.7992 52.702 34.4915Z" fill="white"/>
<path fill-rule="evenodd" clip-rule="evenodd" d="M54.1487 34.406C53.7067 35.5246 54.2472 36.7066 53.1461 38.8351C52.883 39.3549 52.2406 40.3079 52.1642 40.4432C51.5554 41.4036 52.7791 41.9753 54.1389 40.2983C54.4686 39.9149 54.8342 38.9314 54.8342 38.9314L55.4223 38.8779C55.4223 38.8779 55.9262 40.7809 56.0402 41.5957C56.1625 42.3822 57.8156 42.8352 57.8472 41.2928C57.7908 40.764 57.5756 40.0484 57.1685 39.1389C57.1685 39.1389 56.9026 38.4728 56.6426 38.3855C56.6426 38.3855 58.4974 36.8473 58.6763 36.2485C58.8641 35.6211 58.53 35.1833 57.0802 36.2028C55.6311 37.2223 55.4617 37.5497 55.4617 37.5497C55.4617 37.5497 55.8117 36.2591 55.7829 35.2804C55.9133 34.2457 54.5307 33.4871 54.1487 34.406Z" fill="white"/>
<path fill-rule="evenodd" clip-rule="evenodd" d="M63.5126 36.4345C62.8902 36.9491 62.4953 37.9174 62.5313 39.3851C62.6064 41.576 63.6789 42.8385 65.5226 42.5948C67.3665 42.3506 66.9384 41.2309 66.769 41.1934C66.6332 41.1632 66.5995 41.0317 65.8431 41.2678C65.0859 41.504 64.5186 41.223 64.047 40.249C63.736 39.59 63.572 38.3113 64.1441 37.5995C64.3149 37.3887 64.4761 37.3314 64.5614 37.288C64.9019 37.1149 65.2492 37.2852 65.3087 37.3291C66.257 37.9119 66.4464 37.2708 66.1096 36.6991C65.4424 35.899 64.5515 35.7329 63.5126 36.4345Z" fill="white"/>
<path fill-rule="evenodd" clip-rule="evenodd" d="M67.6218 36.5223C67.6171 35.6907 68.6411 35.0534 68.9901 36.9141C69.4275 38.1172 69.3025 40.4398 69.514 40.6557C69.7259 40.8716 71.3105 40.5772 71.7396 40.4573C72.1685 40.3378 72.9572 40.4998 72.7772 40.8601C72.6306 41.2282 72.2218 41.2615 72.1365 41.3043C72.0517 41.3473 68.4693 42.2262 68.3393 41.6319C68.2096 41.0375 68.2024 40.7643 68.0738 39.7524C67.9451 38.7402 67.6266 37.3539 67.6218 36.5223Z" fill="white"/>
<path fill-rule="evenodd" clip-rule="evenodd" d="M72.0411 35.7512C71.9664 35.1499 72.697 34.7852 73.1232 35.4322C73.4464 35.9337 73.8144 38.1082 74.3421 39.0236C74.6317 39.3946 75.2316 39.4637 75.5165 39.1252C75.8533 38.6131 75.6187 37.3302 75.4173 36.3008C75.2737 35.8077 75.107 35.4304 75.1172 35.1553C75.25 34.2294 76.1321 34.4523 76.5395 35.4031C76.878 36.4623 77.227 38.1728 77.0444 38.7799C76.8702 39.358 76.6868 40.0882 75.7942 40.2636C75.5623 40.3056 73.6321 40.5325 72.9626 38.7545C72.3188 36.8896 72.1158 36.3526 72.0411 35.7512Z" fill="white"/>
<path fill-rule="evenodd" clip-rule="evenodd" d="M78.0373 33.808C79.227 33.2091 80.1179 33.0054 80.8122 33.2192C81.218 33.4309 81.4784 34.01 81.366 34.5071C81.237 34.9396 81.0231 35.2917 81.0231 35.2917C81.7269 35.3539 82.2393 35.9467 82.369 36.7204C82.499 37.4942 81.6291 38.2186 80.0164 38.6633C79.4731 38.7898 78.8969 38.7862 78.8718 38.6273C78.8562 38.3167 77.5079 34.6131 77.5079 34.6131C77.4665 34.3889 77.3236 34.1429 78.0373 33.808ZM78.5258 34.4679L79.1142 35.6406C79.1142 35.6406 80.5576 35.1589 80.3912 34.5082C80.2242 33.8577 79.3156 34.2418 78.5258 34.4679ZM79.3135 36.5441C79.3135 36.5441 79.7142 37.983 79.6976 37.918C79.6894 37.8239 81.8009 37.4783 81.3555 36.5515C80.91 35.625 79.3135 36.5441 79.3135 36.5441Z" fill="white"/>
<path d="M29.0854 27.9961L16.6926 53.7908H17.9484L29.9181 28.5672L29.0854 27.9961Z" fill="#17171D"/>
<path fill-rule="evenodd" clip-rule="evenodd" d="M19.0695 44.5945C19.6456 44.7964 22.9347 44.8166 22.2865 45.7657C21.6383 46.7147 23.9911 48.1686 25.2875 46.3109C26.5839 44.4532 24.8314 42.0503 22.1905 42.656C19.5496 43.2618 19.0695 44.5945 19.0695 44.5945Z" fill="white" stroke="#252429" stroke-width="2" stroke-linecap="round" stroke-linejoin="round"/>
<path fill-rule="evenodd" clip-rule="evenodd" d="M17.0322 49.1632C17.6084 49.3651 20.8975 49.3854 20.2493 50.3346C19.6011 51.2836 21.9539 52.7374 23.2503 50.8798C24.5467 49.0219 22.7941 46.6191 20.1532 47.2249C17.5124 47.8307 17.0322 49.1632 17.0322 49.1632Z" fill="white" stroke="#252429" stroke-width="2" stroke-linecap="round" stroke-linejoin="round"/>
<path fill-rule="evenodd" clip-rule="evenodd" d="M15.6741 54.0183C16.2503 54.2202 19.5393 54.2404 18.8911 55.1897C18.2429 56.1386 20.5957 57.5925 21.8921 55.7348C23.1885 53.8769 21.4359 51.4741 18.795 52.0798C16.1542 52.6855 15.6741 54.0183 15.6741 54.0183Z" fill="white" stroke="#252429" stroke-width="2" stroke-linecap="round" stroke-linejoin="round"/>
</g>
</g>
<mask id="mask3_1775_1934" style="mask-type:alpha" maskUnits="userSpaceOnUse" x="0" y="0" width="271" height="83">
<rect x="1" y="1" width="269" height="81" rx="40.5" fill="url(#paint4_linear_1775_1934)" stroke="url(#paint5_linear_1775_1934)" stroke-width="2"/>
</mask>
<g mask="url(#mask3_1775_1934)">
<rect x="1" y="1" width="269" height="81" rx="40.5" fill="url(#paint6_linear_1775_1934)" stroke="url(#paint7_linear_1775_1934)" stroke-width="2"/>
<path d="M105.945 19.4805H100.477V24.3242H105.535V25.7988H100.477V32H98.8359V17.9961H105.945V19.4805ZM109.207 19.6074C108.882 19.6074 108.608 19.5 108.387 19.2852C108.165 19.0638 108.055 18.7936 108.055 18.4746C108.055 18.1556 108.165 17.8887 108.387 17.6738C108.608 17.4525 108.882 17.3418 109.207 17.3418C109.533 17.3418 109.806 17.4525 110.027 17.6738C110.249 17.8887 110.359 18.1556 110.359 18.4746C110.359 18.7936 110.249 19.0638 110.027 19.2852C109.806 19.5 109.533 19.6074 109.207 19.6074ZM109.988 32H108.387V22H109.988V32ZM121.531 32H119.93V26.2969C119.93 25.2357 119.734 24.4414 119.344 23.9141C118.96 23.3802 118.38 23.1133 117.605 23.1133C116.805 23.1133 116.141 23.416 115.613 24.0215C115.092 24.6204 114.832 25.3789 114.832 26.2969V32H113.23V22H114.832V23.6602H114.871C115.249 23.0286 115.711 22.5566 116.258 22.2441C116.805 21.9251 117.436 21.7656 118.152 21.7656C119.246 21.7656 120.083 22.1204 120.662 22.8301C121.242 23.5332 121.531 24.5521 121.531 25.8867V32ZM131.453 30.3008C131.082 30.9453 130.61 31.4303 130.037 31.7559C129.471 32.0749 128.797 32.2344 128.016 32.2344C126.759 32.2344 125.753 31.7884 124.998 30.8965C124.249 29.998 123.875 28.7773 123.875 27.2344C123.875 25.5807 124.292 24.2559 125.125 23.2598C125.958 22.2637 127.068 21.7656 128.455 21.7656C129.145 21.7656 129.738 21.9023 130.232 22.1758C130.734 22.4427 131.141 22.8464 131.453 23.3867H131.492V17.1953H133.094V32H131.492V30.3008H131.453ZM125.516 27.1562C125.516 28.3086 125.783 29.2201 126.316 29.8906C126.857 30.5547 127.579 30.8867 128.484 30.8867C129.383 30.8867 130.109 30.5645 130.662 29.9199C131.215 29.2754 131.492 28.4616 131.492 27.4785V26.0039C131.492 25.1966 131.222 24.513 130.682 23.9531C130.148 23.3932 129.474 23.1133 128.66 23.1133C127.684 23.1133 126.915 23.4714 126.355 24.1875C125.796 24.9036 125.516 25.8932 125.516 27.1562ZM142.645 19.6074C142.319 19.6074 142.046 19.5 141.824 19.2852C141.603 19.0638 141.492 18.7936 141.492 18.4746C141.492 18.1556 141.603 17.8887 141.824 17.6738C142.046 17.4525 142.319 17.3418 142.645 17.3418C142.97 17.3418 143.243 17.4525 143.465 17.6738C143.686 17.8887 143.797 18.1556 143.797 18.4746C143.797 18.7936 143.686 19.0638 143.465 19.2852C143.243 19.5 142.97 19.6074 142.645 19.6074ZM143.426 32H141.824V22H143.426V32ZM151.434 31.8828C151.16 31.9935 150.89 32.0749 150.623 32.127C150.363 32.1855 150.066 32.2148 149.734 32.2148C148.94 32.2148 148.315 31.9837 147.859 31.5215C147.41 31.0527 147.186 30.3626 147.186 29.4512V23.3672H145.467V22H147.186V19.5586L148.787 19.041V22H151.307V23.3672H148.787V29.2656C148.787 29.8385 148.888 30.252 149.09 30.5059C149.298 30.7598 149.607 30.8867 150.018 30.8867C150.213 30.8867 150.402 30.8639 150.584 30.8184C150.766 30.7728 150.919 30.7207 151.043 30.6621L151.434 31.8828ZM163.113 32.2344C161.635 32.2344 160.454 31.7689 159.568 30.8379C158.689 29.9004 158.25 28.6602 158.25 27.1172C158.25 25.444 158.706 24.1354 159.617 23.1914C160.529 22.2474 161.772 21.7721 163.348 21.7656C164.839 21.7591 166.001 22.2181 166.834 23.1426C167.674 24.0671 168.094 25.3398 168.094 26.9609C168.094 28.5625 167.641 29.8418 166.736 30.7988C165.838 31.7559 164.63 32.2344 163.113 32.2344ZM163.23 30.8867C164.266 30.8867 165.06 30.5514 165.613 29.8809C166.173 29.2038 166.453 28.25 166.453 27.0195C166.453 25.763 166.173 24.7995 165.613 24.1289C165.053 23.4518 164.259 23.1133 163.23 23.1133C162.202 23.1133 161.388 23.4648 160.789 24.168C160.19 24.8711 159.891 25.8346 159.891 27.0586C159.891 28.2435 160.193 29.1777 160.799 29.8613C161.404 30.5449 162.215 30.8867 163.23 30.8867ZM178.953 32H177.352V26.2969C177.352 25.2357 177.156 24.4414 176.766 23.9141C176.382 23.3802 175.802 23.1133 175.027 23.1133C174.227 23.1133 173.562 23.416 173.035 24.0215C172.514 24.6204 172.254 25.3789 172.254 26.2969V32H170.652V22H172.254V23.6602H172.293C172.671 23.0286 173.133 22.5566 173.68 22.2441C174.227 21.9251 174.858 21.7656 175.574 21.7656C176.668 21.7656 177.505 22.1204 178.084 22.8301C178.663 23.5332 178.953 24.5521 178.953 25.8867V32Z" fill="white"/>
<path d="M98.62 65V42.32H104.2V51.212H113.056V42.32H118.636V65H113.056V56.072H104.2V65H98.62ZM120.417 57.08C120.417 55.736 120.597 54.536 120.957 53.48C121.341 52.424 121.833 51.536 122.433 50.816C123.057 50.096 123.789 49.556 124.629 49.196C125.469 48.812 126.345 48.62 127.257 48.62C128.313 48.62 129.297 48.836 130.209 49.268C131.121 49.7 131.865 50.36 132.441 51.248V49.16H137.985V65H132.441V62.912C131.865 63.8 131.121 64.46 130.209 64.892C129.297 65.324 128.313 65.54 127.257 65.54C126.345 65.54 125.469 65.36 124.629 65C123.789 64.616 123.057 64.064 122.433 63.344C121.833 62.624 121.341 61.736 120.957 60.68C120.597 59.624 120.417 58.424 120.417 57.08ZM129.237 53.12C128.205 53.12 127.401 53.504 126.825 54.272C126.249 55.016 125.961 55.952 125.961 57.08C125.961 58.208 126.249 59.156 126.825 59.924C127.401 60.668 128.205 61.04 129.237 61.04C130.197 61.04 130.977 60.692 131.577 59.996C132.201 59.3 132.513 58.328 132.513 57.08C132.513 55.832 132.213 54.86 131.613 54.164C131.013 53.468 130.221 53.12 129.237 53.12ZM145.209 57.08C145.209 58.448 145.509 59.48 146.109 60.176C146.709 60.872 147.417 61.22 148.233 61.22C148.881 61.22 149.457 61.004 149.961 60.572C150.465 60.14 150.765 59.492 150.861 58.628H156.549C156.381 59.924 156.009 61.016 155.433 61.904C154.857 62.792 154.173 63.512 153.381 64.064C152.613 64.592 151.773 64.964 150.861 65.18C149.949 65.42 149.073 65.54 148.233 65.54C147.177 65.54 146.133 65.372 145.101 65.036C144.069 64.7 143.145 64.196 142.329 63.524C141.537 62.828 140.889 61.94 140.385 60.86C139.905 59.78 139.665 58.52 139.665 57.08C139.665 55.64 139.905 54.38 140.385 53.3C140.889 52.22 141.537 51.344 142.329 50.672C143.145 49.976 144.069 49.46 145.101 49.124C146.133 48.788 147.177 48.62 148.233 48.62C149.073 48.62 149.949 48.74 150.861 48.98C151.773 49.196 152.613 49.58 153.381 50.132C154.149 50.66 154.821 51.368 155.397 52.256C155.973 53.144 156.357 54.236 156.549 55.532H150.861C150.789 54.644 150.489 53.996 149.961 53.588C149.457 53.156 148.881 52.94 148.233 52.94C147.417 52.94 146.709 53.288 146.109 53.984C145.509 54.68 145.209 55.712 145.209 57.08ZM158.089 65V40.52H163.633V55.388L168.997 49.16H175.045L168.853 56.648L175.549 65H168.781L163.633 58.16V65H158.089ZM198.782 56.072H204.434C204.074 57.968 203.522 59.54 202.778 60.788C202.058 62.012 201.206 62.984 200.222 63.704C199.262 64.4 198.194 64.88 197.018 65.144C195.842 65.408 194.654 65.54 193.454 65.54C191.822 65.54 190.31 65.24 188.918 64.64C187.526 64.04 186.338 63.224 185.354 62.192C184.37 61.136 183.59 59.876 183.014 58.412C182.462 56.948 182.186 55.364 182.186 53.66C182.186 51.956 182.45 50.372 182.978 48.908C183.53 47.444 184.286 46.196 185.246 45.164C186.23 44.108 187.418 43.28 188.81 42.68C190.202 42.08 191.75 41.78 193.454 41.78C194.654 41.78 195.842 41.924 197.018 42.212C198.194 42.5 199.262 43.004 200.222 43.724C201.206 44.444 202.058 45.416 202.778 46.64C203.522 47.864 204.074 49.4 204.434 51.248H198.71C198.374 49.52 197.69 48.356 196.658 47.756C195.65 47.132 194.582 46.82 193.454 46.82C191.75 46.82 190.37 47.468 189.314 48.764C188.282 50.06 187.766 51.692 187.766 53.66C187.766 55.628 188.294 57.26 189.35 58.556C190.406 59.852 191.774 60.5 193.454 60.5C194.534 60.5 195.59 60.224 196.622 59.672C197.678 59.12 198.398 57.92 198.782 56.072ZM206.097 65V40.52H211.641V65H206.097ZM219.458 49.16V57.656C219.458 58.736 219.662 59.54 220.07 60.068C220.502 60.596 221.054 60.86 221.726 60.86C222.374 60.86 222.914 60.572 223.346 59.996C223.802 59.396 224.03 58.46 224.03 57.188V49.16H229.574V65H224.03V62.948C223.502 63.812 222.842 64.46 222.05 64.892C221.258 65.324 220.43 65.54 219.566 65.54C217.886 65.54 216.518 65 215.462 63.92C214.43 62.816 213.914 61.256 213.914 59.24V49.16H219.458ZM249.647 57.08C249.647 58.424 249.455 59.624 249.071 60.68C248.711 61.736 248.219 62.624 247.595 63.344C246.995 64.064 246.275 64.616 245.435 65C244.595 65.36 243.719 65.54 242.807 65.54C241.751 65.54 240.767 65.324 239.855 64.892C238.943 64.46 238.199 63.8 237.623 62.912V65H232.079V40.52H237.623V51.248C238.199 50.36 238.943 49.7 239.855 49.268C240.767 48.836 241.751 48.62 242.807 48.62C243.719 48.62 244.595 48.812 245.435 49.196C246.275 49.556 246.995 50.096 247.595 50.816C248.219 51.536 248.711 52.424 249.071 53.48C249.455 54.536 249.647 55.736 249.647 57.08ZM240.827 53.12C239.843 53.12 239.051 53.48 238.451 54.2C237.851 54.896 237.551 55.856 237.551 57.08C237.551 58.304 237.851 59.276 238.451 59.996C239.075 60.692 239.867 61.04 240.827 61.04C241.859 61.04 242.663 60.668 243.239 59.924C243.815 59.156 244.103 58.208 244.103 57.08C244.103 55.952 243.815 55.016 243.239 54.272C242.663 53.504 241.859 53.12 240.827 53.12Z" fill="white"/>
<mask id="mask4_1775_1934" style="mask-type:luminance" maskUnits="userSpaceOnUse" x="-6" y="20" width="96" height="45">
<path d="M-6 20H89.0679V64.9772H-6V20Z" fill="white"/>
</mask>
<g mask="url(#mask4_1775_1934)">
<path fill-rule="evenodd" clip-rule="evenodd" d="M-18.223 42.7713C-18.223 42.7713 -17.6467 43.3787 -16.6757 44.3545C-13.2166 47.8307 -8.5905 53.8833 -3.33152 55.8932C3.40366 58.467 10.3964 58.2774 10.3964 58.2774C10.3964 58.2774 15.1102 37.755 15.3507 38.0778C15.5912 38.4005 7.09264 35.2604 2.61324 34.3029C-1.86619 33.3453 -6.94001 29.7189 -8.30847 28.5679" fill="white"/>
<path d="M-18.223 42.8134C-18.223 42.8134 -10.0277 53.3288 -3.28148 55.8932C3.46478 58.4579 10.4807 58.2083 10.4807 58.2083L16.3385 38.2321C16.3385 38.2321 2.20391 35.9327 -8.25842 28.5679" stroke="#17171D" stroke-width="1.4" stroke-linecap="square" stroke-linejoin="round"/>
<path fill-rule="evenodd" clip-rule="evenodd" d="M15.7284 38.0181C14.1721 37.924 10.8547 37.5941 7.9498 46.9836C5.04483 56.3731 8.95817 58.2915 10.3266 58.0693C11.6951 57.8472 14.336 56.9588 18.6093 48.4375C22.8827 39.9162 17.2847 38.1122 15.7284 38.0181Z" fill="white" stroke="#17171D" stroke-width="1.5" stroke-linecap="round" stroke-linejoin="round"/>
<mask id="mask5_1775_1934" style="mask-type:luminance" maskUnits="userSpaceOnUse" x="20" y="26" width="69" height="20">
<path fill-rule="evenodd" clip-rule="evenodd" d="M26.1853 27.7976C26.6726 27.522 33.7819 23.86 50.4684 30.6641C66.2299 37.0914 82.1942 29.695 85.0639 28.2151C85.159 28.1658 85.3175 28.2937 85.2659 28.3768L82.3653 33.0757C82.3195 33.1498 82.3813 33.2383 82.4804 33.2397C83.2284 33.2512 85.837 33.286 88.758 33.2641C88.8788 33.2629 88.9471 33.3793 88.8585 33.4489C86.8889 34.9988 72.9882 45.6215 62.1179 45.5822C50.392 45.5395 44.0537 43.2128 36.5643 41.4435C29.1895 39.7014 25.0042 39.0896 20.4833 39.7041C20.4833 39.7041 24.9688 30.5189 25.9636 28.2887C26.1025 27.9771 26.183 27.7989 26.1853 27.7976Z" fill="white"/>
</mask>
<g mask="url(#mask5_1775_1934)">
<path fill-rule="evenodd" clip-rule="evenodd" d="M26.1853 27.7976C26.6726 27.522 33.7819 23.86 50.4684 30.6641C66.2299 37.0914 82.1942 29.695 85.0639 28.2151C85.159 28.1658 85.3175 28.2937 85.2659 28.3768L82.3653 33.0757C82.3195 33.1498 82.3813 33.2383 82.4804 33.2397C83.2284 33.2512 85.837 33.286 88.758 33.2641C88.8788 33.2629 88.9471 33.3793 88.8585 33.4489C86.8889 34.9988 72.9882 45.6215 62.1179 45.5822C50.392 45.5395 44.0537 43.2128 36.5643 41.4435C29.1895 39.7014 25.0042 39.0896 20.4833 39.7041C20.4833 39.7041 24.9688 30.5189 25.9636 28.2887C26.1025 27.9771 26.183 27.7989 26.1853 27.7976Z" fill="#EC3750" stroke="#17171D" stroke-width="2.5"/>
</g>
<path fill-rule="evenodd" clip-rule="evenodd" d="M30.3591 30.2214C30.1768 31.067 29.8277 32.5194 29.1001 34.3952C27.5938 37.3857 30.1394 36.9062 30.8738 35.6642C31.3091 34.9784 31.7569 34.2342 31.7569 34.2342L34.0382 34.9794C34.0382 34.9794 33.8498 35.8541 33.6579 36.5775C32.9307 38.4533 35.0246 38.2355 35.6106 36.8499C35.872 36.1372 37.0875 33.162 37.4267 31.5875C37.9309 30.581 36.2275 29.6541 35.4459 31.2807C35.0296 31.879 34.3523 33.1901 34.3523 33.1901C34.3523 33.1901 32.4686 32.597 32.4465 32.5334C32.3735 32.3715 32.6071 31.9556 32.619 31.5659C32.5182 28.8688 30.6042 29.0843 30.3591 30.2214Z" fill="white"/>
<path fill-rule="evenodd" clip-rule="evenodd" d="M40.6146 32.2308C41.2013 31.2589 41.8698 31.0981 42.3662 31.1443C42.5808 31.1598 42.8701 31.5274 43.0911 31.8803C43.8085 34.2015 42.4793 38.461 42.2467 38.7466C41.4457 39.8246 40.0506 39.6151 40.5871 38.4493C40.8383 37.7407 41.1069 37.0969 41.1069 37.0969L39.3006 36.9206C37.8688 39.2356 36.5973 38.2595 37.3381 37.2599C38.1309 36.0886 39.8211 33.524 40.6146 32.2308ZM40.0021 35.2107L41.7822 35.4728C41.7822 35.4728 42.2905 32.8364 41.7326 33.1127L40.0021 35.2107Z" fill="white"/>
<path fill-rule="evenodd" clip-rule="evenodd" d="M49.702 34.4915C49.9403 33.9336 49.4568 32.6682 47.7432 32.8727C45.2626 32.8788 44.3856 36.531 44.3856 36.531C44.3856 36.531 43.9639 38.2999 44.6084 39.5088C45.1937 40.6744 46.6282 40.6833 46.9066 40.7138C48.5367 40.308 47.9839 39.3936 47.7055 39.3633C47.3514 39.3466 46.8703 39.3939 46.4836 39.126C45.8273 38.6774 45.9505 37.545 46.0968 36.9362C46.4384 35.9127 47.1901 33.8805 48.3693 34.3827C49.0745 35.1475 49.574 34.7992 49.702 34.4915Z" fill="white"/>
<path fill-rule="evenodd" clip-rule="evenodd" d="M51.1487 34.406C50.7067 35.5246 51.2472 36.7066 50.1461 38.8351C49.883 39.3549 49.2406 40.3079 49.1642 40.4432C48.5554 41.4036 49.7791 41.9753 51.1389 40.2983C51.4686 39.9149 51.8342 38.9314 51.8342 38.9314L52.4223 38.8779C52.4223 38.8779 52.9262 40.7809 53.0402 41.5957C53.1625 42.3822 54.8156 42.8352 54.8472 41.2928C54.7908 40.764 54.5756 40.0484 54.1685 39.1389C54.1685 39.1389 53.9026 38.4728 53.6426 38.3855C53.6426 38.3855 55.4974 36.8473 55.6763 36.2485C55.8641 35.6211 55.53 35.1833 54.0802 36.2028C52.6311 37.2223 52.4617 37.5497 52.4617 37.5497C52.4617 37.5497 52.8117 36.2591 52.7829 35.2804C52.9133 34.2457 51.5307 33.4871 51.1487 34.406Z" fill="white"/>
<path fill-rule="evenodd" clip-rule="evenodd" d="M60.5126 36.4345C59.8902 36.9491 59.4953 37.9174 59.5313 39.3851C59.6064 41.576 60.6789 42.8385 62.5226 42.5948C64.3665 42.3506 63.9384 41.2309 63.769 41.1934C63.6332 41.1632 63.5995 41.0317 62.8431 41.2678C62.0859 41.504 61.5186 41.223 61.047 40.249C60.736 39.59 60.572 38.3113 61.1441 37.5995C61.3149 37.3887 61.4761 37.3314 61.5614 37.288C61.9019 37.1149 62.2492 37.2852 62.3087 37.3291C63.257 37.9119 63.4464 37.2708 63.1096 36.6991C62.4424 35.899 61.5515 35.7329 60.5126 36.4345Z" fill="white"/>
<path fill-rule="evenodd" clip-rule="evenodd" d="M64.6218 36.5223C64.6171 35.6907 65.6411 35.0534 65.9901 36.9141C66.4275 38.1172 66.3025 40.4398 66.514 40.6557C66.7259 40.8716 68.3105 40.5772 68.7396 40.4573C69.1685 40.3378 69.9572 40.4998 69.7772 40.8601C69.6306 41.2282 69.2218 41.2615 69.1365 41.3043C69.0517 41.3473 65.4693 42.2262 65.3393 41.6319C65.2096 41.0375 65.2024 40.7643 65.0738 39.7524C64.9451 38.7402 64.6266 37.3539 64.6218 36.5223Z" fill="white"/>
<path fill-rule="evenodd" clip-rule="evenodd" d="M69.0411 35.7512C68.9664 35.1499 69.697 34.7852 70.1232 35.4322C70.4464 35.9337 70.8144 38.1082 71.3421 39.0236C71.6317 39.3946 72.2316 39.4637 72.5165 39.1252C72.8533 38.6131 72.6187 37.3302 72.4173 36.3008C72.2737 35.8077 72.107 35.4304 72.1172 35.1553C72.25 34.2294 73.1321 34.4523 73.5395 35.4031C73.878 36.4623 74.227 38.1728 74.0444 38.7799C73.8702 39.358 73.6868 40.0882 72.7942 40.2636C72.5623 40.3056 70.6321 40.5325 69.9626 38.7545C69.3188 36.8896 69.1158 36.3526 69.0411 35.7512Z" fill="white"/>
<path fill-rule="evenodd" clip-rule="evenodd" d="M75.0373 33.808C76.227 33.2091 77.1179 33.0054 77.8122 33.2192C78.218 33.4309 78.4784 34.01 78.366 34.5071C78.237 34.9396 78.0231 35.2917 78.0231 35.2917C78.7269 35.3539 79.2393 35.9467 79.369 36.7204C79.499 37.4942 78.6291 38.2186 77.0164 38.6633C76.4731 38.7898 75.8969 38.7862 75.8718 38.6273C75.8562 38.3167 74.5079 34.6131 74.5079 34.6131C74.4665 34.3889 74.3236 34.1429 75.0373 33.808ZM75.5258 34.4679L76.1142 35.6406C76.1142 35.6406 77.5576 35.1589 77.3912 34.5082C77.2242 33.8577 76.3156 34.2418 75.5258 34.4679ZM76.3135 36.5441C76.3135 36.5441 76.7142 37.983 76.6976 37.918C76.6894 37.8239 78.8009 37.4783 78.3555 36.5515C77.91 35.625 76.3135 36.5441 76.3135 36.5441Z" fill="white"/>
<path d="M26.0854 27.9961L13.6926 53.7908H14.9484L26.9181 28.5672L26.0854 27.9961Z" fill="#17171D"/>
<path fill-rule="evenodd" clip-rule="evenodd" d="M16.0695 44.5945C16.6456 44.7964 19.9347 44.8166 19.2865 45.7657C18.6383 46.7147 20.9911 48.1686 22.2875 46.3109C23.5839 44.4532 21.8314 42.0503 19.1905 42.656C16.5496 43.2618 16.0695 44.5945 16.0695 44.5945Z" fill="white" stroke="#252429" stroke-width="1.5" stroke-linecap="round" stroke-linejoin="round"/>
<path fill-rule="evenodd" clip-rule="evenodd" d="M14.0322 49.1632C14.6084 49.3651 17.8975 49.3854 17.2493 50.3346C16.6011 51.2836 18.9539 52.7374 20.2503 50.8798C21.5467 49.0219 19.7941 46.6191 17.1532 47.2249C14.5124 47.8307 14.0322 49.1632 14.0322 49.1632Z" fill="white" stroke="#252429" stroke-width="1.5" stroke-linecap="round" stroke-linejoin="round"/>
<path fill-rule="evenodd" clip-rule="evenodd" d="M12.6741 54.0183C13.2503 54.2202 16.5393 54.2404 15.8911 55.1897C15.2429 56.1386 17.5957 57.5925 18.8921 55.7348C20.1885 53.8769 18.4359 51.4741 15.795 52.0798C13.1542 52.6855 12.6741 54.0183 12.6741 54.0183Z" fill="white" stroke="#252429" stroke-width="1.5" stroke-linecap="round" stroke-linejoin="round"/>
</g>
</g>
<defs>
<linearGradient id="paint0_linear_1775_1934" x1="135.5" y1="0" x2="135.5" y2="83" gradientUnits="userSpaceOnUse">
<stop stop-color="#285A81"/>
<stop offset="1" stop-color="#88B6DA"/>
</linearGradient>
<linearGradient id="paint1_linear_1775_1934" x1="135.5" y1="0" x2="135.5" y2="83" gradientUnits="userSpaceOnUse">
<stop stop-color="#99C1CD"/>
<stop offset="1" stop-color="#78B4C6"/>
</linearGradient>
<linearGradient id="paint2_linear_1775_1934" x1="135.5" y1="0" x2="135.5" y2="83" gradientUnits="userSpaceOnUse">
<stop stop-color="#F8733E"/>
<stop offset="1" stop-color="#EA374F"/>
</linearGradient>
<linearGradient id="paint3_linear_1775_1934" x1="135.5" y1="0" x2="135.5" y2="83" gradientUnits="userSpaceOnUse">
<stop stop-color="#F59771"/>
<stop offset="1" stop-color="#FF8293"/>
</linearGradient>
<linearGradient id="paint4_linear_1775_1934" x1="135.5" y1="0" x2="135.5" y2="83" gradientUnits="userSpaceOnUse">
<stop stop-color="#285A81"/>
<stop offset="1" stop-color="#88B6DA"/>
</linearGradient>
<linearGradient id="paint5_linear_1775_1934" x1="135.5" y1="0" x2="135.5" y2="83" gradientUnits="userSpaceOnUse">
<stop stop-color="#99C1CD"/>
<stop offset="1" stop-color="#78B4C6"/>
</linearGradient>
<linearGradient id="paint6_linear_1775_1934" x1="135.5" y1="0" x2="135.5" y2="83" gradientUnits="userSpaceOnUse">
<stop stop-color="#F8733E"/>
<stop offset="1" stop-color="#EA374F"/>
</linearGradient>
<linearGradient id="paint7_linear_1775_1934" x1="135.5" y1="0" x2="135.5" y2="83" gradientUnits="userSpaceOnUse">
<stop stop-color="#F59771"/>
<stop offset="1" stop-color="#FF8293"/>
</linearGradient>
</defs>
</svg>
