<svg width="228" height="83" viewBox="0 0 228 83" fill="none" xmlns="http://www.w3.org/2000/svg">
<rect x="1" y="1" width="221" height="81" rx="40.5" fill="url(#paint0_linear_1772_2160)" stroke="url(#paint1_linear_1772_2160)" stroke-width="2"/>
<path d="M94.9453 21.4805H89.4766V26.3242H94.5352V27.7988H89.4766V34H87.8359V19.9961H94.9453V21.4805ZM98.207 21.6074C97.8815 21.6074 97.6081 21.5 97.3867 21.2852C97.1654 21.0638 97.0547 20.7936 97.0547 20.4746C97.0547 20.1556 97.1654 19.8887 97.3867 19.6738C97.6081 19.4525 97.8815 19.3418 98.207 19.3418C98.5326 19.3418 98.806 19.4525 99.0273 19.6738C99.2487 19.8887 99.3594 20.1556 99.3594 20.4746C99.3594 20.7936 99.2487 21.0638 99.0273 21.2852C98.806 21.5 98.5326 21.6074 98.207 21.6074ZM98.9883 34H97.3867V24H98.9883V34ZM110.531 34H108.93V28.2969C108.93 27.2357 108.734 26.4414 108.344 25.9141C107.96 25.3802 107.38 25.1133 106.605 25.1133C105.805 25.1133 105.141 25.416 104.613 26.0215C104.092 26.6204 103.832 27.3789 103.832 28.2969V34H102.23V24H103.832V25.6602H103.871C104.249 25.0286 104.711 24.5566 105.258 24.2441C105.805 23.9251 106.436 23.7656 107.152 23.7656C108.246 23.7656 109.083 24.1204 109.662 24.8301C110.242 25.5332 110.531 26.5521 110.531 27.8867V34ZM120.453 32.3008C120.082 32.9453 119.61 33.4303 119.037 33.7559C118.471 34.0749 117.797 34.2344 117.016 34.2344C115.759 34.2344 114.753 33.7884 113.998 32.8965C113.249 31.998 112.875 30.7773 112.875 29.2344C112.875 27.5807 113.292 26.2559 114.125 25.2598C114.958 24.2637 116.068 23.7656 117.455 23.7656C118.145 23.7656 118.738 23.9023 119.232 24.1758C119.734 24.4427 120.141 24.8464 120.453 25.3867H120.492V19.1953H122.094V34H120.492V32.3008H120.453ZM114.516 29.1562C114.516 30.3086 114.783 31.2201 115.316 31.8906C115.857 32.5547 116.579 32.8867 117.484 32.8867C118.383 32.8867 119.109 32.5645 119.662 31.9199C120.215 31.2754 120.492 30.4616 120.492 29.4785V28.0039C120.492 27.1966 120.222 26.513 119.682 25.9531C119.148 25.3932 118.474 25.1133 117.66 25.1133C116.684 25.1133 115.915 25.4714 115.355 26.1875C114.796 26.9036 114.516 27.8932 114.516 29.1562ZM131.645 21.6074C131.319 21.6074 131.046 21.5 130.824 21.2852C130.603 21.0638 130.492 20.7936 130.492 20.4746C130.492 20.1556 130.603 19.8887 130.824 19.6738C131.046 19.4525 131.319 19.3418 131.645 19.3418C131.97 19.3418 132.243 19.4525 132.465 19.6738C132.686 19.8887 132.797 20.1556 132.797 20.4746C132.797 20.7936 132.686 21.0638 132.465 21.2852C132.243 21.5 131.97 21.6074 131.645 21.6074ZM132.426 34H130.824V24H132.426V34ZM140.434 33.8828C140.16 33.9935 139.89 34.0749 139.623 34.127C139.363 34.1855 139.066 34.2148 138.734 34.2148C137.94 34.2148 137.315 33.9837 136.859 33.5215C136.41 33.0527 136.186 32.3626 136.186 31.4512V25.3672H134.467V24H136.186V21.5586L137.787 21.041V24H140.307V25.3672H137.787V31.2656C137.787 31.8385 137.888 32.252 138.09 32.5059C138.298 32.7598 138.607 32.8867 139.018 32.8867C139.213 32.8867 139.402 32.8639 139.584 32.8184C139.766 32.7728 139.919 32.7207 140.043 32.6621L140.434 33.8828ZM152.113 34.2344C150.635 34.2344 149.454 33.7689 148.568 32.8379C147.689 31.9004 147.25 30.6602 147.25 29.1172C147.25 27.444 147.706 26.1354 148.617 25.1914C149.529 24.2474 150.772 23.7721 152.348 23.7656C153.839 23.7591 155.001 24.2181 155.834 25.1426C156.674 26.0671 157.094 27.3398 157.094 28.9609C157.094 30.5625 156.641 31.8418 155.736 32.7988C154.838 33.7559 153.63 34.2344 152.113 34.2344ZM152.23 32.8867C153.266 32.8867 154.06 32.5514 154.613 31.8809C155.173 31.2038 155.453 30.25 155.453 29.0195C155.453 27.763 155.173 26.7995 154.613 26.1289C154.053 25.4518 153.259 25.1133 152.23 25.1133C151.202 25.1133 150.388 25.4648 149.789 26.168C149.19 26.8711 148.891 27.8346 148.891 29.0586C148.891 30.2435 149.193 31.1777 149.799 31.8613C150.404 32.5449 151.215 32.8867 152.23 32.8867ZM167.953 34H166.352V28.2969C166.352 27.2357 166.156 26.4414 165.766 25.9141C165.382 25.3802 164.802 25.1133 164.027 25.1133C163.227 25.1133 162.562 25.416 162.035 26.0215C161.514 26.6204 161.254 27.3789 161.254 28.2969V34H159.652V24H161.254V25.6602H161.293C161.671 25.0286 162.133 24.5566 162.68 24.2441C163.227 23.9251 163.858 23.7656 164.574 23.7656C165.668 23.7656 166.505 24.1204 167.084 24.8301C167.663 25.5332 167.953 26.5521 167.953 27.8867V34ZM181.234 33.8828C180.961 33.9935 180.691 34.0749 180.424 34.127C180.163 34.1855 179.867 34.2148 179.535 34.2148C178.741 34.2148 178.116 33.9837 177.66 33.5215C177.211 33.0527 176.986 32.3626 176.986 31.4512V25.3672H175.268V24H176.986V21.5586L178.588 21.041V24H181.107V25.3672H178.588V31.2656C178.588 31.8385 178.689 32.252 178.891 32.5059C179.099 32.7598 179.408 32.8867 179.818 32.8867C180.014 32.8867 180.202 32.8639 180.385 32.8184C180.567 32.7728 180.72 32.7207 180.844 32.6621L181.234 33.8828ZM191.547 34H189.945V28.2383C189.945 27.1966 189.75 26.4154 189.359 25.8945C188.975 25.3737 188.396 25.1133 187.621 25.1133C186.84 25.1133 186.182 25.416 185.648 26.0215C185.115 26.6204 184.848 27.3919 184.848 28.3359V34H183.246V19.1953H184.848V25.6602H184.887C185.271 25.0286 185.736 24.5566 186.283 24.2441C186.83 23.9251 187.458 23.7656 188.168 23.7656C189.294 23.7656 190.137 24.1042 190.697 24.7812C191.264 25.4583 191.547 26.4772 191.547 27.8379V34ZM202.611 29.3613H195.541C195.567 30.4876 195.863 31.3568 196.43 31.9688C197.003 32.5742 197.803 32.877 198.832 32.877C199.281 32.877 199.73 32.8118 200.18 32.6816C200.635 32.5449 201.085 32.3301 201.527 32.0371L202.27 33.1797C201.703 33.5443 201.137 33.8112 200.57 33.9805C200.004 34.1497 199.382 34.2344 198.705 34.2344C197.195 34.2344 196.016 33.7852 195.17 32.8867C194.324 31.9883 193.897 30.735 193.891 29.127C193.884 27.5189 194.307 26.2233 195.16 25.2402C196.02 24.2572 197.133 23.7656 198.5 23.7656C199.802 23.7656 200.811 24.1921 201.527 25.0449C202.25 25.8913 202.611 27.0664 202.611 28.5703V29.3613ZM200.971 28.0527C200.964 27.1283 200.74 26.4089 200.297 25.8945C199.854 25.3737 199.245 25.1133 198.471 25.1133C197.709 25.1133 197.061 25.3802 196.527 25.9141C196 26.4414 195.678 27.1543 195.561 28.0527H200.971Z" fill="white"/>
<path d="M116.234 44.5938L110.203 67H106.047L101.844 51.8125C101.76 51.4896 101.688 51.2083 101.625 50.9688C101.573 50.7292 101.521 50.4427 101.469 50.1094H101.406C101.344 50.4531 101.281 50.75 101.219 51C101.167 51.2396 101.099 51.5052 101.016 51.7969L96.75 67H92.4531L86.25 44.5938H90.2344L94.3594 60.4844C94.4531 60.8177 94.5208 61.0938 94.5625 61.3125C94.6146 61.5208 94.6771 61.8125 94.75 62.1875H94.8281C94.9115 61.8125 94.9792 61.526 95.0312 61.3281C95.0833 61.1302 95.1615 60.8385 95.2656 60.4531L99.7656 44.5938H103.5L107.766 60.5312C107.849 60.8542 107.911 61.1198 107.953 61.3281C108.005 61.526 108.068 61.8073 108.141 62.1719H108.203C108.286 61.7969 108.349 61.5156 108.391 61.3281C108.432 61.1302 108.495 60.8542 108.578 60.5L112.562 44.5938H116.234ZM130.501 59.8906H119.454C119.485 61.4323 119.902 62.5938 120.704 63.375C121.516 64.1458 122.511 64.5312 123.688 64.5312C124.521 64.5312 125.261 64.3385 125.907 63.9531C126.553 63.5573 127.1 62.974 127.548 62.2031L130.344 63.7188C129.615 64.8854 128.683 65.7865 127.548 66.4219C126.423 67.0573 125.094 67.375 123.563 67.375C121.209 67.375 119.324 66.6667 117.907 65.25C116.49 63.8333 115.782 61.7969 115.782 59.1406C115.782 56.6094 116.506 54.5573 117.954 52.9844C119.412 51.4115 121.235 50.625 123.423 50.625C125.673 50.625 127.412 51.2969 128.641 52.6406C129.881 53.9844 130.501 55.9323 130.501 58.4844V59.8906ZM126.985 57.2969C126.985 56.0469 126.673 55.0781 126.048 54.3906C125.423 53.7031 124.568 53.3594 123.485 53.3594C122.35 53.3594 121.428 53.7396 120.719 54.5C120.011 55.25 119.584 56.1823 119.438 57.2969H126.985ZM136.876 65.2656H136.814V67H133.173V43.3125H136.814V53.2031H136.876C137.48 52.3698 138.236 51.7344 139.142 51.2969C140.048 50.849 141.09 50.625 142.267 50.625C144.402 50.625 146.059 51.3385 147.236 52.7656C148.423 54.1823 149.017 56.1302 149.017 58.6094C149.017 61.2656 148.366 63.3906 147.064 64.9844C145.762 66.5781 143.98 67.375 141.72 67.375C140.647 67.375 139.699 67.1979 138.876 66.8438C138.064 66.4792 137.397 65.9531 136.876 65.2656ZM136.767 58.3125V60.2656C136.767 61.4427 137.152 62.4323 137.923 63.2344C138.694 64.026 139.694 64.4219 140.923 64.4219C142.319 64.4219 143.392 63.9167 144.142 62.9062C144.902 61.8958 145.283 60.4948 145.283 58.7031C145.283 57.0677 144.928 55.8073 144.22 54.9219C143.512 54.026 142.527 53.5781 141.267 53.5781C139.944 53.5781 138.861 54.026 138.017 54.9219C137.184 55.8073 136.767 56.9375 136.767 58.3125Z" fill="white"/>
<g clip-path="url(#clip0_1772_2160)">
<path d="M67 42C67 44.2187 66.715 46.3477 66.1445 48.3867C65.5742 50.4258 64.7695 52.3359 63.7305 54.1172C62.6914 55.8984 61.4414 57.5195 59.9805 58.9805C58.5195 60.4414 56.8984 61.6914 55.1172 62.7305C53.3359 63.7695 51.4219 64.5742 49.375 65.1445C47.3281 65.715 45.2031 66 43 66C40.7813 66 38.6523 65.715 36.6133 65.1445C34.5742 64.5742 32.6641 63.7695 30.8828 62.7305C29.1016 61.6914 27.4805 60.4414 26.0195 58.9805C24.5586 57.5195 23.3086 55.8984 22.2695 54.1172C21.2305 52.3359 20.4258 50.4219 19.8555 48.375C19.2852 46.3281 19 44.2031 19 42C19 39.7969 19.2852 37.6719 19.8555 35.625C20.4258 33.5781 21.2305 31.6641 22.2695 29.8828C23.3086 28.1016 24.5586 26.4805 26.0195 25.0195C27.4805 23.5586 29.1016 22.3086 30.8828 21.2695C32.6641 20.2305 34.5781 19.4258 36.625 18.8555C38.6719 18.2852 40.7969 18 43 18C45.2031 18 47.3281 18.2852 49.375 18.8555C51.4219 19.4258 53.3359 20.2305 55.1172 21.2695C56.8984 22.3086 58.5195 23.5586 59.9805 25.0195C61.4414 26.4805 62.6914 28.1016 63.7305 29.8828C64.7695 31.6641 65.5742 33.5781 66.1445 35.625C66.715 37.6719 67 39.7969 67 42ZM34.9141 33H51.0859C50.9609 32.3906 50.7812 31.6719 50.5469 30.8438C50.3125 30.0156 50.0234 29.1562 49.6797 28.2656C49.336 27.375 48.9414 26.4961 48.4961 25.6289C48.0508 24.7617 47.5508 23.9844 46.9961 23.2969C46.4414 22.6094 45.832 22.0547 45.168 21.6328C44.5039 21.2109 43.7813 21 43 21C42.2187 21 41.4961 21.2109 40.832 21.6328C40.168 22.0547 39.5586 22.6094 39.0039 23.2969C38.4492 23.9844 37.9492 24.7617 37.5039 25.6289C37.0586 26.4961 36.664 27.375 36.3203 28.2656C35.9766 29.1562 35.6875 30.0156 35.4531 30.8438C35.2188 31.6719 35.0391 32.3906 34.9141 33ZM24.0156 33H31.8438C32.2031 31.0625 32.7227 29.1719 33.4023 27.3281C34.082 25.4844 34.9922 23.7578 36.1328 22.1484C34.8203 22.5547 33.5625 23.1172 32.3594 23.8359C31.1562 24.5547 30.0352 25.3906 28.9961 26.3438C27.957 27.2969 27.0117 28.3359 26.1602 29.4609C25.3086 30.5859 24.5937 31.7656 24.0156 33ZM49.8672 22.1484C51.0078 23.7578 51.918 25.4844 52.5977 27.3281C53.2773 29.1719 53.7969 31.0625 54.1562 33H61.9844C61.3906 31.7656 60.6719 30.5859 59.8281 29.4609C58.9844 28.3359 58.043 27.2969 57.0039 26.3438C55.9648 25.3906 54.8438 24.5547 53.6406 23.8359C52.4375 23.1172 51.1797 22.5547 49.8672 22.1484ZM31.375 48C31.2344 47 31.1367 46.0039 31.082 45.0117C31.0273 44.0195 31 43.0156 31 42C31 40.9844 31.0273 39.9805 31.082 38.9883C31.1367 37.9961 31.2344 37 31.375 36H22.8672C22.5859 36.9844 22.3711 37.9726 22.2227 38.9648C22.0742 39.957 22 40.9688 22 42C22 43.0312 22.0742 44.043 22.2227 45.0352C22.3711 46.0274 22.5859 47.0156 22.8672 48H31.375ZM51.625 48C51.7656 47 51.8633 46.0039 51.918 45.0117C51.9727 44.0195 52 43.0156 52 42C52 40.9844 51.9727 39.9805 51.918 38.9883C51.8633 37.9961 51.7656 37 51.625 36H34.375C34.2344 37 34.1367 37.9961 34.082 38.9883C34.0273 39.9805 34 40.9844 34 42C34 43.0156 34.0273 44.0195 34.082 45.0117C34.1367 46.0039 34.2344 47 34.375 48H51.625ZM63.1328 36H54.625C54.7656 37 54.8633 37.9961 54.918 38.9883C54.9727 39.9805 55 40.9844 55 42C55 43.0156 54.9727 44.0195 54.918 45.0117C54.8633 46.0039 54.7656 47 54.625 48H63.1328C63.4141 47.0156 63.6289 46.0274 63.7773 45.0352C63.9258 44.043 64 43.0312 64 42C64 40.9688 63.9258 39.957 63.7773 38.9648C63.6289 37.9726 63.4141 36.9844 63.1328 36ZM36.1328 61.8516C34.9922 60.2422 34.082 58.5156 33.4023 56.6719C32.7227 54.8281 32.2031 52.9375 31.8438 51H24.0156C24.5937 52.2188 25.3047 53.3945 26.1484 54.5273C26.9922 55.6602 27.9375 56.6992 28.9844 57.6445C30.0312 58.5899 31.1562 59.4258 32.3594 60.1523C33.5625 60.8789 34.8203 61.4453 36.1328 61.8516ZM51.0859 51H34.9141C35.0391 51.6094 35.2188 52.3281 35.4531 53.1562C35.6875 53.9844 35.9766 54.8438 36.3203 55.7344C36.664 56.625 37.0586 57.5039 37.5039 58.3711C37.9492 59.2383 38.4492 60.0156 39.0039 60.7031C39.5586 61.3906 40.168 61.9453 40.832 62.3672C41.4961 62.7891 42.2187 63 43 63C43.7813 63 44.5039 62.7891 45.168 62.3672C45.832 61.9453 46.4414 61.3906 46.9961 60.7031C47.5508 60.0156 48.0508 59.2383 48.4961 58.3711C48.9414 57.5039 49.336 56.625 49.6797 55.7344C50.0234 54.8438 50.3125 53.9844 50.5469 53.1562C50.7812 52.3281 50.9609 51.6094 51.0859 51ZM61.9844 51H54.1562C53.7969 52.9375 53.2773 54.8281 52.5977 56.6719C51.918 58.5156 51.0078 60.2422 49.8672 61.8516C51.1797 61.4453 52.4375 60.8828 53.6406 60.1641C54.8438 59.4453 55.9648 58.6094 57.0039 57.6562C58.043 56.7031 58.9844 55.6641 59.8281 54.5391C60.6719 53.4141 61.3906 52.2344 61.9844 51Z" fill="white"/>
</g>
<defs>
<linearGradient id="paint0_linear_1772_2160" x1="111.5" y1="0" x2="111.5" y2="83" gradientUnits="userSpaceOnUse">
<stop stop-color="#285A81"/>
<stop offset="1" stop-color="#88B6DA"/>
</linearGradient>
<linearGradient id="paint1_linear_1772_2160" x1="111.5" y1="0" x2="111.5" y2="83" gradientUnits="userSpaceOnUse">
<stop stop-color="#487395"/>
<stop offset="1" stop-color="#85B9E2"/>
</linearGradient>
<clipPath id="clip0_1772_2160">
<rect width="48" height="48" fill="white" transform="translate(19 18)"/>
</clipPath>
</defs>
</svg>
