<svg width="228" height="83" viewBox="0 0 228 83" fill="none" xmlns="http://www.w3.org/2000/svg">
<rect x="1" y="1" width="204" height="81" rx="40.5" fill="url(#paint0_linear_1772_2126)" stroke="url(#paint1_linear_1772_2126)" stroke-width="2"/>
<path d="M98.3047 33.043C97.6016 33.4401 96.8594 33.7396 96.0781 33.9414C95.2969 34.1367 94.4766 34.2344 93.6172 34.2344C91.5664 34.2344 89.9355 33.6159 88.7246 32.3789C87.5202 31.1419 86.918 29.4102 86.918 27.1836C86.918 24.9115 87.5918 23.1081 88.9395 21.7734C90.2936 20.4323 92.0286 19.7617 94.1445 19.7617C94.9193 19.7617 95.6387 19.8431 96.3027 20.0059C96.9668 20.1621 97.6439 20.416 98.334 20.7676L97.6602 22.0957C97.0807 21.7962 96.5111 21.5814 95.9512 21.4512C95.3913 21.3145 94.7858 21.2461 94.1348 21.2461C92.5332 21.2461 91.2148 21.7539 90.1797 22.7695C89.151 23.7852 88.6367 25.2174 88.6367 27.0664C88.6367 28.9414 89.0892 30.3607 89.9941 31.3242C90.8991 32.2812 92.1751 32.7598 93.8223 32.7598C94.3691 32.7598 94.8802 32.7077 95.3555 32.6035C95.8307 32.4928 96.2669 32.3268 96.6641 32.1055V28.1797H93.5977V26.6953H98.3047V33.043ZM109.389 29.3613H102.318C102.344 30.4876 102.641 31.3568 103.207 31.9688C103.78 32.5742 104.581 32.877 105.609 32.877C106.059 32.877 106.508 32.8118 106.957 32.6816C107.413 32.5449 107.862 32.3301 108.305 32.0371L109.047 33.1797C108.48 33.5443 107.914 33.8112 107.348 33.9805C106.781 34.1497 106.16 34.2344 105.482 34.2344C103.972 34.2344 102.794 33.7852 101.947 32.8867C101.101 31.9883 100.674 30.735 100.668 29.127C100.661 27.5189 101.085 26.2233 101.938 25.2402C102.797 24.2572 103.91 23.7656 105.277 23.7656C106.579 23.7656 107.589 24.1921 108.305 25.0449C109.027 25.8913 109.389 27.0664 109.389 28.5703V29.3613ZM107.748 28.0527C107.742 27.1283 107.517 26.4089 107.074 25.8945C106.632 25.3737 106.023 25.1133 105.248 25.1133C104.486 25.1133 103.839 25.3802 103.305 25.9141C102.777 26.4414 102.455 27.1543 102.338 28.0527H107.748ZM116.586 33.8828C116.312 33.9935 116.042 34.0749 115.775 34.127C115.515 34.1855 115.219 34.2148 114.887 34.2148C114.092 34.2148 113.467 33.9837 113.012 33.5215C112.562 33.0527 112.338 32.3626 112.338 31.4512V25.3672H110.619V24H112.338V21.5586L113.939 21.041V24H116.459V25.3672H113.939V31.2656C113.939 31.8385 114.04 32.252 114.242 32.5059C114.451 32.7598 114.76 32.8867 115.17 32.8867C115.365 32.8867 115.554 32.8639 115.736 32.8184C115.919 32.7728 116.072 32.7207 116.195 32.6621L116.586 33.8828ZM124.906 21.6074C124.581 21.6074 124.307 21.5 124.086 21.2852C123.865 21.0638 123.754 20.7936 123.754 20.4746C123.754 20.1556 123.865 19.8887 124.086 19.6738C124.307 19.4525 124.581 19.3418 124.906 19.3418C125.232 19.3418 125.505 19.4525 125.727 19.6738C125.948 19.8887 126.059 20.1556 126.059 20.4746C126.059 20.7936 125.948 21.0638 125.727 21.2852C125.505 21.5 125.232 21.6074 124.906 21.6074ZM125.688 34H124.086V24H125.688V34ZM133.695 33.8828C133.422 33.9935 133.152 34.0749 132.885 34.127C132.624 34.1855 132.328 34.2148 131.996 34.2148C131.202 34.2148 130.577 33.9837 130.121 33.5215C129.672 33.0527 129.447 32.3626 129.447 31.4512V25.3672H127.729V24H129.447V21.5586L131.049 21.041V24H133.568V25.3672H131.049V31.2656C131.049 31.8385 131.15 32.252 131.352 32.5059C131.56 32.7598 131.869 32.8867 132.279 32.8867C132.475 32.8867 132.663 32.8639 132.846 32.8184C133.028 32.7728 133.181 32.7207 133.305 32.6621L133.695 33.8828ZM145.971 20.5039C145.788 20.4453 145.622 20.403 145.473 20.377C145.329 20.3509 145.176 20.3379 145.014 20.3379C144.467 20.3379 144.06 20.4844 143.793 20.7773C143.526 21.0703 143.393 21.5 143.393 22.0664V24H145.736V25.3672H143.393V34H141.801V25.3672H140.092V24H141.801V21.9883C141.801 21.0443 142.09 20.3086 142.67 19.7812C143.249 19.2474 144.044 18.9805 145.053 18.9805C145.3 18.9805 145.525 19 145.727 19.0391C145.928 19.0716 146.137 19.1237 146.352 19.1953L145.971 20.5039ZM152.396 25.3672C152.273 25.3281 152.162 25.3021 152.064 25.2891C151.967 25.2695 151.843 25.2598 151.693 25.2598C150.88 25.2598 150.238 25.6081 149.77 26.3047C149.301 26.9948 149.066 27.8607 149.066 28.9023V34H147.465V24H149.066V25.9824H149.105C149.333 25.2793 149.682 24.7454 150.15 24.3809C150.619 24.0098 151.16 23.8242 151.771 23.8242C151.973 23.8242 152.143 23.834 152.279 23.8535C152.423 23.873 152.549 23.9023 152.66 23.9414L152.396 25.3672ZM158.598 34.2344C157.12 34.2344 155.938 33.7689 155.053 32.8379C154.174 31.9004 153.734 30.6602 153.734 29.1172C153.734 27.444 154.19 26.1354 155.102 25.1914C156.013 24.2474 157.257 23.7721 158.832 23.7656C160.323 23.7591 161.485 24.2181 162.318 25.1426C163.158 26.0671 163.578 27.3398 163.578 28.9609C163.578 30.5625 163.126 31.8418 162.221 32.7988C161.322 33.7559 160.115 34.2344 158.598 34.2344ZM158.715 32.8867C159.75 32.8867 160.544 32.5514 161.098 31.8809C161.658 31.2038 161.938 30.25 161.938 29.0195C161.938 27.763 161.658 26.7995 161.098 26.1289C160.538 25.4518 159.743 25.1133 158.715 25.1133C157.686 25.1133 156.872 25.4648 156.273 26.168C155.674 26.8711 155.375 27.8346 155.375 29.0586C155.375 30.2435 155.678 31.1777 156.283 31.8613C156.889 32.5449 157.699 32.8867 158.715 32.8867ZM180.336 34H178.734V28.2578C178.734 27.151 178.562 26.3503 178.217 25.8555C177.878 25.3607 177.305 25.1133 176.498 25.1133C175.814 25.1133 175.232 25.4258 174.75 26.0508C174.275 26.6758 174.037 27.4245 174.037 28.2969V34H172.436V28.0625C172.436 27.0794 172.247 26.3438 171.869 25.8555C171.492 25.3607 170.922 25.1133 170.16 25.1133C169.457 25.1133 168.878 25.4095 168.422 26.002C167.966 26.5879 167.738 27.3529 167.738 28.2969V34H166.137V24H167.738V25.582H167.777C168.135 24.9766 168.572 24.5241 169.086 24.2246C169.607 23.9186 170.206 23.7656 170.883 23.7656C171.566 23.7656 172.162 23.9577 172.67 24.3418C173.178 24.7194 173.526 25.2174 173.715 25.8359C174.086 25.1458 174.548 24.6283 175.102 24.2832C175.655 23.9382 176.299 23.7656 177.035 23.7656C178.135 23.7656 178.959 24.1042 179.506 24.7812C180.059 25.4583 180.336 26.4772 180.336 27.8379V34Z" fill="white"/>
<path d="M107.625 67H103.547L93.0625 50.9688C92.8542 50.6354 92.6875 50.3698 92.5625 50.1719C92.4479 49.974 92.3333 49.776 92.2188 49.5781H92.1406C92.1615 49.8698 92.1771 50.276 92.1875 50.7969C92.1979 51.3073 92.2031 51.9323 92.2031 52.6719V67H88.6094V44.5938H92.9375L103.109 60.2812C103.297 60.5938 103.458 60.8698 103.594 61.1094C103.74 61.3385 103.885 61.5885 104.031 61.8594H104.094C104.073 61.5677 104.057 61.1615 104.047 60.6406C104.036 60.1198 104.031 59.4844 104.031 58.7344V44.5938H107.625V67ZM125.782 67H122.141V64.8281H122.079C121.558 65.6094 120.855 66.2292 119.969 66.6875C119.094 67.1458 118.173 67.375 117.204 67.375C115.329 67.375 113.912 66.8229 112.954 65.7188C111.995 64.6042 111.516 62.9792 111.516 60.8438V51H115.126V60.3594C115.126 61.7135 115.386 62.7292 115.907 63.4062C116.428 64.0833 117.24 64.4219 118.344 64.4219C119.459 64.4219 120.37 64.0156 121.079 63.2031C121.787 62.3906 122.141 61.3646 122.141 60.125V51H125.782V67ZM147.97 64.6875C146.887 65.4896 145.631 66.1406 144.204 66.6406C142.777 67.1302 141.293 67.375 139.751 67.375C136.303 67.375 133.569 66.3594 131.548 64.3281C129.527 62.2969 128.517 59.5625 128.517 56.125C128.517 52.5938 129.527 49.7292 131.548 47.5312C133.569 45.3229 136.194 44.2188 139.423 44.2188C141.527 44.2188 143.298 44.6354 144.736 45.4688C146.173 46.2917 147.262 47.4167 148.001 48.8438L144.892 50.3438C144.34 49.375 143.616 48.6562 142.72 48.1875C141.824 47.7188 140.788 47.4844 139.611 47.4844C137.496 47.4844 135.772 48.2396 134.439 49.75C133.116 51.2604 132.454 53.2917 132.454 55.8438C132.454 58.4583 133.116 60.4896 134.439 61.9375C135.772 63.3854 137.527 64.1094 139.704 64.1094C140.548 64.1094 141.366 64.0052 142.158 63.7969C142.949 63.5781 143.647 63.2604 144.251 62.8438V58.2031H139.283V55H147.97V64.6875ZM165.221 59.8906H154.174C154.205 61.4323 154.622 62.5938 155.424 63.375C156.236 64.1458 157.231 64.5312 158.408 64.5312C159.241 64.5312 159.981 64.3385 160.627 63.9531C161.273 63.5573 161.82 62.974 162.268 62.2031L165.064 63.7188C164.335 64.8854 163.403 65.7865 162.268 66.4219C161.143 67.0573 159.814 67.375 158.283 67.375C155.929 67.375 154.044 66.6667 152.627 65.25C151.21 63.8333 150.502 61.7969 150.502 59.1406C150.502 56.6094 151.226 54.5573 152.674 52.9844C154.132 51.4115 155.955 50.625 158.143 50.625C160.393 50.625 162.132 51.2969 163.361 52.6406C164.601 53.9844 165.221 55.9323 165.221 58.4844V59.8906ZM161.705 57.2969C161.705 56.0469 161.393 55.0781 160.768 54.3906C160.143 53.7031 159.288 53.3594 158.205 53.3594C157.07 53.3594 156.148 53.7396 155.439 54.5C154.731 55.25 154.304 56.1823 154.158 57.2969H161.705ZM177.299 65.9219C176.82 66.3802 176.263 66.7344 175.628 66.9844C174.992 67.2344 174.279 67.3594 173.487 67.3594C171.966 67.3594 170.815 66.9792 170.034 66.2188C169.263 65.4479 168.878 64.3229 168.878 62.8438V53.8438H166.19V51H168.878V47.0781L172.503 46.4375V51H176.581V53.8438H172.503V62.7188C172.503 63.3542 172.628 63.8229 172.878 64.125C173.138 64.4271 173.529 64.5781 174.049 64.5781C174.32 64.5781 174.586 64.526 174.846 64.4219C175.107 64.3177 175.383 64.1146 175.674 63.8125L177.299 65.9219Z" fill="white"/>
<g clip-path="url(#clip0_1772_2126)">
<path fill-rule="evenodd" clip-rule="evenodd" d="M57.0275 62.806C52.2796 62.806 48.43 58.9561 48.43 54.2077C48.43 49.4614 52.2796 45.6093 57.0275 45.6093C61.7755 45.6093 65.625 49.4614 65.625 54.2077C65.625 58.9561 61.7755 62.806 57.0275 62.806ZM39.8777 43.0986C36.9094 43.0986 34.5043 40.6911 34.5043 37.7247C34.5043 34.7561 36.9094 32.3507 39.8777 32.3507C42.846 32.3507 45.2511 34.7561 45.2511 37.7247C45.2511 40.6911 42.846 43.0986 39.8777 43.0986ZM57.408 26.3232H43.0588C35.7466 26.3232 29.8143 32.2561 29.8143 39.5711V53.9196C29.8143 61.2368 35.7466 67.1654 43.0588 67.1654H57.408C64.7244 67.1654 70.6524 61.2368 70.6524 53.9196V39.5711C70.6524 32.2561 64.7244 26.3232 57.408 26.3232Z" fill="white"/>
<mask id="mask0_1772_2126" style="mask-type:luminance" maskUnits="userSpaceOnUse" x="19" y="16" width="9" height="10">
<path d="M19 21.2836V16.9854H27.5975V25.5818H19V21.2836Z" fill="white"/>
</mask>
<g mask="url(#mask0_1772_2126)">
<path fill-rule="evenodd" clip-rule="evenodd" d="M27.5975 21.2826C27.5975 23.6579 25.6716 25.5817 23.2987 25.5817C20.9237 25.5817 19 23.6579 19 21.2826C19 18.9094 20.9237 16.9834 23.2987 16.9834C25.6716 16.9834 27.5975 18.9094 27.5975 21.2826Z" fill="white"/>
</g>
</g>
<defs>
<linearGradient id="paint0_linear_1772_2126" x1="103" y1="0" x2="103" y2="83" gradientUnits="userSpaceOnUse">
<stop stop-color="#00477F"/>
</linearGradient>
<linearGradient id="paint1_linear_1772_2126" x1="103" y1="0" x2="103" y2="83" gradientUnits="userSpaceOnUse">
<stop stop-color="#185686"/>
<stop offset="1" stop-color="#0E4977"/>
</linearGradient>
<clipPath id="clip0_1772_2126">
<rect width="52" height="52" fill="white" transform="translate(19 16)"/>
</clipPath>
</defs>
</svg>
